<?xml version="1.0" encoding="UTF-8"?>
<svg width="48" height="48" viewBox="0 0 48 48" fill="none" xmlns="http://www.w3.org/2000/svg">
  <path d="M24 4C12.954 4 4 12.954 4 24C4 35.046 12.954 44 24 44C35.046 44 44 35.046 44 24C44 12.954 35.046 4 24 4Z" fill="#1877F2"/>
  <path d="M26.707 25.474H30.352L30.889 21.301H26.707V18.808C26.707 17.433 27.172 16.141 29.292 16.141H31.025V12.582C30.318 12.476 29.127 12.25 27.172 12.25C23.105 12.25 20.366 14.72 20.366 18.321V21.301H16.975V25.474H20.366V37.654C21.219 37.779 22.094 37.75 22.975 37.75C23.856 37.75 24.731 37.779 25.584 37.654V25.474H26.707Z" fill="white"/>
</svg> 