<?xml version="1.0" encoding="UTF-8"?>
<svg width="48" height="48" viewBox="0 0 48 48" fill="none" xmlns="http://www.w3.org/2000/svg">
  <path d="M24 4C12.954 4 4 12.954 4 24C4 35.046 12.954 44 24 44C35.046 44 44 35.046 44 24C44 12.954 35.046 4 24 4Z" fill="url(#instagram-gradient)"/>
  <path d="M29.5 15H18.5C16.567 15 15 16.567 15 18.5V29.5C15 31.433 16.567 33 18.5 33H29.5C31.433 33 33 31.433 33 29.5V18.5C33 16.567 31.433 15 29.5 15ZM24 28C21.791 28 20 26.209 20 24C20 21.791 21.791 20 24 20C26.209 20 28 21.791 28 24C28 26.209 26.209 28 24 28ZM29.5 19.5C29.5 20.328 28.828 21 28 21C27.172 21 26.5 20.328 26.5 19.5C26.5 18.672 27.172 18 28 18C28.828 18 29.5 18.672 29.5 19.5Z" fill="white"/>
  <defs>
    <linearGradient id="instagram-gradient" x1="4" y1="44" x2="44" y2="4" gradientUnits="userSpaceOnUse">
      <stop offset="0" stop-color="#FD5949"/>
      <stop offset="0.5" stop-color="#D6249F"/>
      <stop offset="1" stop-color="#285AEB"/>
    </linearGradient>
  </defs>
</svg> 