<?xml version="1.0" encoding="UTF-8"?>
<svg width="48" height="48" viewBox="0 0 48 48" fill="none" xmlns="http://www.w3.org/2000/svg">
  <path d="M24 4C12.954 4 4 12.954 4 24C4 27.981 5.197 31.687 7.256 34.804L4.482 43.518L13.196 40.744C16.313 42.803 20.019 44 24 44C35.046 44 44 35.046 44 24C44 12.954 35.046 4 24 4Z" fill="#25D366"/>
  <path d="M34.771 30.018C34.283 31.286 32.509 32.341 31.103 32.628C30.122 32.825 28.829 32.983 24.999 31.386C20.043 29.305 16.812 24.287 16.572 23.967C16.342 23.647 14.42 21.129 14.42 18.529C14.42 15.929 15.811 14.61 16.341 14.07C16.781 13.62 17.501 13.41 18.191 13.41C18.411 13.41 18.611 13.42 18.791 13.43C19.321 13.45 19.571 13.48 19.901 14.42C20.301 15.57 21.461 18.17 21.571 18.4C21.691 18.63 21.811 18.94 21.641 19.24C21.481 19.55 21.341 19.7 21.111 19.97C20.881 20.24 20.661 20.45 20.431 20.74C20.221 20.99 19.981 21.26 20.251 21.71C20.521 22.15 21.461 23.66 22.831 24.87C24.621 26.47 26.121 26.98 26.621 27.19C27.001 27.35 27.451 27.31 27.721 27.04C28.071 26.69 28.501 26.05 28.941 25.42C29.251 24.97 29.651 24.91 30.071 25.07C30.501 25.22 33.081 26.49 33.551 26.72C34.021 26.95 34.331 27.06 34.451 27.24C34.571 27.42 34.571 28.57 34.081 30.018H34.771Z" fill="white"/>
</svg> 